<svg version="1" xmlns="http://www.w3.org/2000/svg" width="200" height="200" viewBox="0 0 150.000000 150.000000"><path d="M0 11.9C0 21.2.3 24 1.5 25c1.9 1.6 1.9 6 0 8.6C-.1 35.8-.7 55 .9 55c2 0 7 5.2 7.6 8 .7 3.2-1.1 7.5-5.6 13C.2 79.2 0 80.1 0 87.5c0 7.9 0 8 3.3 10.2 1.7 1.1 6.4 2.9 10.4 3.8 5.6 1.4 7.6 2.3 8.9 4.3 1.3 2 1.4 2.9.5 4.4-1.8 2.8-1.3 6.5 1.6 12.5 3.3 6.6 7 9.3 13.1 9.3 5.6 0 9 3.2 12.3 11.8l2.4 6.3 25-.5c13.8-.3 26.6-.6 28.5-.8 1.9-.1 4.3.2 5.3.6 1.4.7 1.7.3 1.7-1.9 0-2.5-.3-2.7-2.8-2.2-1.5.3-3.4.2-4.2-.3-.9-.6-1.7-.5-2.1.2-.6.9-1.2.8-2.3-.1-1.1-.9-1.6-1-1.6-.2 0 1.3-3.6 1.5-4.4.2-.4-.5.4-.7 1.6-.3 1.4.3 1.9.2 1.4-.6-.4-.7-1.4-1.2-2.2-1.2-.8 0-1.4-.7-1.4-1.5s-.5-1.5-1.1-1.5c-.5 0-.7.4-.4 1 .3.5.5 1 .3 1s-1.8.4-3.6.9c-2 .6-3.2.6-3.2 0 0-.5 1.1-.9 2.5-.9 2.8 0 3.5-2 .8-2.1-1.6 0-1.6-.1.1-.8 1.5-.6.5-1.6-5.8-5.6-6.7-4.2-13.3-10.4-21.6-20.1-5.9-6.9-19-27.8-21.3-34.1-6.4-16.7-8.6-30.4-6.3-39 .8-3.2 2-8 2.7-10.6 2.2-8.9 6.2-11.5 12.5-8.2 1.6.8 4.3 1.5 5.9 1.6l3 .1-3 1.3c-1.6.8-3.9 1.4-5.1 1.5-2.5 0-5 2.6-5.9 6.1-.9 3.7 1.1 4.6 4.6 2C51.6 33 53.4 32 54 32c.5 0 1-.4 1-.9 0-.6 2-1.3 4.5-1.7 2.5-.3 4.8-1 5.1-1.5.3-.5 3.4-.9 7-.9 7.7 0 15.6-1.8 15.1-3.4-.4-1.3-20.9-1.5-24.4-.2-3.7 1.3-2.7-1 1.2-2.8 1.9-1 4.2-2.8 5.1-4.1 2.9-4.5 7.2-6.2 15.4-6.4 7.2-.1 7.6-.2 10.8-3.6C96.6 4.6 98.5 3 99.1 3c.5 0 .9-.7.9-1.5C100 .2 93.8 0 50 0H0v11.9zM104 2.7c0 2.4 3.9 8.7 6.4 10.5.6.4 2.1.8 3.4.8 3 0 2.8-2.5-.3-4.6-1.7-1.1-2.7-2.9-3.1-5.5-.6-3.5-1-3.9-3.5-3.9s-2.9.4-2.9 2.7zM117 .8c0 1.9 6.4 9.3 8.5 9.8 1.3.3 4.7.1 7.7-.5 2.9-.5 7.1-1.3 9.3-1.6 6.9-1 7.5-1.3 7.5-5.1V0h-16.5c-9.1 0-16.5.4-16.5.8zM147.5 20c.4.6 1.1.8 1.6.5 1.4-.9 1.1-1.5-.7-1.5-.8 0-1.2.5-.9 1zM138 21.4c-3.4.9-4.5 1.7-4.5 3.1 0 1.8.7 2 8.2 2 7.8 0 8.3-.1 8.3-2.1 0-1.5-.8-2.4-2.4-2.8-1.3-.3-3-.8-3.8-1-.7-.2-3.3.1-5.8.8zM145.6 40.9c-.3.5-1.6.7-2.8.3-1.4-.3-1.9-.2-1.4.6.4.8 0 1.2-1.2 1.2-1 0-3.2 1.1-4.8 2.5-1.6 1.4-3.2 2.5-3.5 2.5-.4 0-1.9 2.5-3.5 5.5-2.8 5.6-2.8 5.6-.9 8.8 2.8 5 8.6 10.6 11.4 11.1 1.4.3 4.5.8 6.9 1.1l4.2.7v-17c0-14.6-.2-17.1-1.6-17.6-2-.8-2.2-.8-2.8.3z"/><path d="M65.6 43.8c-.3.6-1.8 1.2-3.3 1.5-1.6.2-4.3 1.1-6 1.8-2.9 1.2-3.7 1.1-6.3-.4-2.8-1.7-3.1-1.7-3.7-.1-.3.9-.1 2.5.6 3.6s1 2.3.7 2.6c-.3.3-.6 0-.6-.6 0-1.7-3.9-1.5-5.6.3-1.3 1.3-1.4 1.5-.1 1.5.8 0 3 1.7 4.8 3.7 1.8 2.1 3 3 2.6 2-.6-1.5-.4-1.6 1.6-.5 1.2.7 2.5 1.1 3 1 .4-.1.7.7.7 1.8s.5 2 1 2c.6 0 1 .6 1 1.4 0 1.2 1.8 2.9 7.5 7.4 1.6 1.3 12.8 3.6 16 3.3 4.6-.4 6.7-2 2.8-2.1-1.8 0-3.3-.3-3.3-.6s1.2-2.1 2.6-3.9c3-4 4.1-10.1 2.5-14.6-.6-1.8-.9-3.4-.6-3.7.6-.7 8.5 2.9 8.5 3.8 0 .4.8 1 1.8 1.2 1.4.4 1.8 0 1.8-1.6-.1-2.7-6.9-9.6-9.5-9.6-1.1 0-2.2-.4-2.5-.9-.8-1.2-17.3-1.4-18-.3zM78.5 58c.3.6-.1 1.3-1 1.6-1.9.8-3 0-2-1.5.8-1.4 2.2-1.4 3-.1zM98.2 98.1c.7 2.1 8.6 4.8 14 4.8 4.9.1 12.8-2.4 12.8-4s-2.9-2.2-4.5-.9c-1.4 1.2-10.7.9-18.9-.5-3-.6-3.8-.5-3.4.6zM139 106.9c-6.5 2.6-7.1 2.8-11.5 3.9-8 2.2-12.4 2.7-19.5 2.3-11.3-.7-19-.1-19 1.4 0 3.8 24.1 11.6 29.5 9.5 1.5-.6 3.5-1 4.5-1 1.1 0 3.9-1.4 6.2-3 2.4-1.7 5.4-3.8 6.8-4.8 3.9-2.7 8-7.1 8-8.7 0-.8-.1-1.5-.2-1.4-.2 0-2.3.9-4.8 1.8zM145.4 139.5c1.7 2.5 2.4 2.9 3.4 1.9.6-.7 1.2-2.1 1.2-3.1 0-1.5-.7-1.9-3.3-1.9h-3.3l2 3.1zM142.6 140.8c-.3.6-.1 1.4.5 1.7 1.5 1 2.5-.3 1.2-1.6-.7-.7-1.3-.7-1.7-.1zM139 143c0 1.1.2 2 .4 2s.6-.9.9-2c.3-1.1.1-2-.4-2s-.9.9-.9 2zM131 144c0 .5.5 1 1 1 .6 0 1-.5 1-1 0-.6-.4-1-1-1-.5 0-1 .4-1 1z"/><path d="M135.1 144.3c-1.4 1.8-17.1 2.3-17.1.6 0-.8-.5-.8-1.5.1-.8.7-1.5 1.8-1.5 2.5 0 1.6 7.8 2.9 9.4 1.6.8-.7 2.4-.7 4.4-.1 2.3.6 3 .5 2.6-.2-.5-.7.2-.9 2.2-.4 2.1.5 2.5.4 1.4-.4-.8-.5-1-1-.4-1 .7 0 1.4-.9 1.7-2 .6-2.3.4-2.5-1.2-.7z"/></svg>